<svg width="205" height="36" viewBox="0 0 205 36" fill="none" xmlns="http://www.w3.org/2000/svg">
<path d="M56.697 11.2H59.775V24.5H56.697V11.2ZM50.655 24.5H47.577V11.2H50.655V24.5ZM56.925 19.047H50.427V16.444H56.925V19.047ZM67.7857 24.652C66.6204 24.652 65.5944 24.424 64.7077 23.968C63.8337 23.512 63.1561 22.8913 62.6747 22.106C62.1934 21.308 61.9527 20.4023 61.9527 19.389C61.9527 18.363 62.1871 17.4573 62.6557 16.672C63.1371 15.874 63.7894 15.2533 64.6127 14.81C65.4361 14.354 66.3671 14.126 67.4057 14.126C68.4064 14.126 69.3057 14.3413 70.1037 14.772C70.9144 15.19 71.5541 15.798 72.0227 16.596C72.4914 17.3813 72.7257 18.325 72.7257 19.427C72.7257 19.541 72.7194 19.674 72.7067 19.826C72.6941 19.9653 72.6814 20.0983 72.6687 20.225H64.3657V18.496H71.1107L69.9707 19.009C69.9707 18.477 69.8631 18.0147 69.6477 17.622C69.4324 17.2293 69.1347 16.9253 68.7547 16.71C68.3747 16.482 67.9314 16.368 67.4247 16.368C66.9181 16.368 66.4684 16.482 66.0757 16.71C65.6957 16.9253 65.3981 17.2357 65.1827 17.641C64.9674 18.0337 64.8597 18.5023 64.8597 19.047V19.503C64.8597 20.0603 64.9801 20.5543 65.2207 20.985C65.4741 21.403 65.8224 21.726 66.2657 21.954C66.7217 22.1693 67.2537 22.277 67.8617 22.277C68.4064 22.277 68.8814 22.1947 69.2867 22.03C69.7047 21.8653 70.0847 21.6183 70.4267 21.289L72.0037 22.999C71.5351 23.531 70.9461 23.9427 70.2367 24.234C69.5274 24.5127 68.7104 24.652 67.7857 24.652ZM80.6907 24.5V22.505L80.5007 22.068V18.496C80.5007 17.8627 80.3044 17.3687 79.9117 17.014C79.5317 16.6593 78.9427 16.482 78.1447 16.482C77.6001 16.482 77.0617 16.5707 76.5297 16.748C76.0104 16.9127 75.5671 17.1407 75.1997 17.432L74.1357 15.361C74.6931 14.9683 75.3644 14.6643 76.1497 14.449C76.9351 14.2337 77.7331 14.126 78.5437 14.126C80.1017 14.126 81.3114 14.4933 82.1727 15.228C83.0341 15.9627 83.4647 17.109 83.4647 18.667V24.5H80.6907ZM77.5747 24.652C76.7767 24.652 76.0927 24.519 75.5227 24.253C74.9527 23.9743 74.5157 23.6007 74.2117 23.132C73.9077 22.6633 73.7557 22.1377 73.7557 21.555C73.7557 20.947 73.9014 20.415 74.1927 19.959C74.4967 19.503 74.9717 19.1483 75.6177 18.895C76.2637 18.629 77.1061 18.496 78.1447 18.496H80.8617V20.225H78.4677C77.7711 20.225 77.2897 20.339 77.0237 20.567C76.7704 20.795 76.6437 21.08 76.6437 21.422C76.6437 21.802 76.7894 22.106 77.0807 22.334C77.3847 22.5493 77.7964 22.657 78.3157 22.657C78.8097 22.657 79.2531 22.543 79.6457 22.315C80.0384 22.0743 80.3234 21.726 80.5007 21.27L80.9567 22.638C80.7414 23.2967 80.3487 23.797 79.7787 24.139C79.2087 24.481 78.4741 24.652 77.5747 24.652ZM86.1473 24.5V10.402H89.1113V24.5H86.1473ZM96.8029 24.652C95.5995 24.652 94.6622 24.348 93.9909 23.74C93.3195 23.1193 92.9839 22.201 92.9839 20.985V12.017H95.9479V20.947C95.9479 21.3777 96.0619 21.7133 96.2899 21.954C96.5179 22.182 96.8282 22.296 97.2209 22.296C97.6895 22.296 98.0885 22.1693 98.4179 21.916L99.2159 24.006C98.9119 24.2213 98.5445 24.386 98.1139 24.5C97.6959 24.6013 97.2589 24.652 96.8029 24.652ZM91.4069 16.786V14.506H98.4939V16.786H91.4069ZM107.093 14.126C107.903 14.126 108.625 14.2907 109.259 14.62C109.905 14.9367 110.411 15.4307 110.779 16.102C111.146 16.7607 111.33 17.6093 111.33 18.648V24.5H108.366V19.104C108.366 18.2807 108.182 17.6727 107.815 17.28C107.46 16.8873 106.953 16.691 106.295 16.691C105.826 16.691 105.402 16.7923 105.022 16.995C104.654 17.185 104.363 17.4827 104.148 17.888C103.945 18.2933 103.844 18.8127 103.844 19.446V24.5H100.88V10.402H103.844V17.109L103.179 16.254C103.546 15.57 104.072 15.0443 104.756 14.677C105.44 14.3097 106.219 14.126 107.093 14.126ZM118.481 24.614C117.493 24.614 116.543 24.4557 115.631 24.139C114.732 23.8097 114.035 23.3917 113.541 22.885L114.092 21.802C114.561 22.258 115.188 22.6443 115.973 22.961C116.771 23.265 117.607 23.417 118.481 23.417C119.317 23.417 119.995 23.3157 120.514 23.113C121.046 22.8977 121.433 22.6127 121.673 22.258C121.927 21.9033 122.053 21.5107 122.053 21.08C122.053 20.5607 121.901 20.1427 121.597 19.826C121.306 19.5093 120.92 19.2623 120.438 19.085C119.957 18.895 119.425 18.7303 118.842 18.591C118.26 18.4517 117.677 18.306 117.094 18.154C116.512 17.9893 115.973 17.774 115.479 17.508C114.998 17.242 114.605 16.8937 114.301 16.463C114.01 16.0197 113.864 15.4433 113.864 14.734C113.864 14.0753 114.035 13.4737 114.377 12.929C114.732 12.3717 115.27 11.9283 115.992 11.599C116.714 11.257 117.639 11.086 118.766 11.086C119.514 11.086 120.255 11.1937 120.989 11.409C121.724 11.6117 122.357 11.8967 122.889 12.264L122.414 13.385C121.844 13.005 121.236 12.7263 120.59 12.549C119.957 12.3717 119.343 12.283 118.747 12.283C117.949 12.283 117.291 12.3907 116.771 12.606C116.252 12.8213 115.866 13.1127 115.612 13.48C115.372 13.8347 115.251 14.24 115.251 14.696C115.251 15.2153 115.397 15.6333 115.688 15.95C115.992 16.2667 116.385 16.5137 116.866 16.691C117.36 16.8683 117.899 17.0267 118.481 17.166C119.064 17.3053 119.64 17.4573 120.21 17.622C120.793 17.7867 121.325 18.002 121.806 18.268C122.3 18.5213 122.693 18.8633 122.984 19.294C123.288 19.7247 123.44 20.2883 123.44 20.985C123.44 21.631 123.263 22.2327 122.908 22.79C122.554 23.3347 122.009 23.778 121.274 24.12C120.552 24.4493 119.621 24.614 118.481 24.614ZM131.368 24.595C130.507 24.595 129.728 24.3987 129.031 24.006C128.334 23.6007 127.777 23.0243 127.359 22.277C126.954 21.517 126.751 20.5923 126.751 19.503C126.751 18.4137 126.954 17.4953 127.359 16.748C127.764 15.988 128.315 15.4117 129.012 15.019C129.709 14.6263 130.494 14.43 131.368 14.43C132.318 14.43 133.167 14.6453 133.914 15.076C134.674 15.494 135.269 16.0893 135.7 16.862C136.131 17.622 136.346 18.5023 136.346 19.503C136.346 20.5163 136.131 21.403 135.7 22.163C135.269 22.923 134.674 23.5183 133.914 23.949C133.167 24.3797 132.318 24.595 131.368 24.595ZM126.219 28.186V14.525H127.511V17.527L127.378 19.522L127.568 21.536V28.186H126.219ZM131.273 23.398C131.982 23.398 132.616 23.2397 133.173 22.923C133.73 22.5937 134.174 22.1377 134.503 21.555C134.832 20.9597 134.997 20.2757 134.997 19.503C134.997 18.7303 134.832 18.0527 134.503 17.47C134.174 16.8873 133.73 16.4313 133.173 16.102C132.616 15.7727 131.982 15.608 131.273 15.608C130.564 15.608 129.924 15.7727 129.354 16.102C128.797 16.4313 128.353 16.8873 128.024 17.47C127.707 18.0527 127.549 18.7303 127.549 19.503C127.549 20.2757 127.707 20.9597 128.024 21.555C128.353 22.1377 128.797 22.5937 129.354 22.923C129.924 23.2397 130.564 23.398 131.273 23.398ZM143.333 24.595C142.294 24.595 141.382 24.3797 140.597 23.949C139.812 23.5057 139.197 22.904 138.754 22.144C138.311 21.3713 138.089 20.491 138.089 19.503C138.089 18.515 138.298 17.641 138.716 16.881C139.147 16.121 139.729 15.5257 140.464 15.095C141.211 14.6517 142.047 14.43 142.972 14.43C143.909 14.43 144.739 14.6453 145.461 15.076C146.196 15.494 146.772 16.0893 147.19 16.862C147.608 17.622 147.817 18.5023 147.817 19.503C147.817 19.5663 147.811 19.636 147.798 19.712C147.798 19.7753 147.798 19.845 147.798 19.921H139.115V18.914H147.076L146.544 19.313C146.544 18.591 146.386 17.9513 146.069 17.394C145.765 16.824 145.347 16.3807 144.815 16.064C144.283 15.7473 143.669 15.589 142.972 15.589C142.288 15.589 141.674 15.7473 141.129 16.064C140.584 16.3807 140.16 16.824 139.856 17.394C139.552 17.964 139.4 18.6163 139.4 19.351V19.56C139.4 20.32 139.565 20.9913 139.894 21.574C140.236 22.144 140.705 22.5937 141.3 22.923C141.908 23.2397 142.598 23.398 143.371 23.398C143.979 23.398 144.543 23.2903 145.062 23.075C145.594 22.8597 146.05 22.5303 146.43 22.087L147.19 22.961C146.747 23.493 146.189 23.8983 145.518 24.177C144.859 24.4557 144.131 24.595 143.333 24.595ZM154.705 24.595C153.717 24.595 152.83 24.3797 152.045 23.949C151.272 23.5057 150.664 22.904 150.221 22.144C149.777 21.3713 149.556 20.491 149.556 19.503C149.556 18.5023 149.777 17.622 150.221 16.862C150.664 16.102 151.272 15.5067 152.045 15.076C152.83 14.6453 153.717 14.43 154.705 14.43C155.553 14.43 156.32 14.5947 157.004 14.924C157.688 15.2533 158.226 15.7473 158.619 16.406L157.612 17.09C157.27 16.5833 156.845 16.2097 156.339 15.969C155.832 15.7283 155.281 15.608 154.686 15.608C153.976 15.608 153.337 15.7727 152.767 16.102C152.197 16.4187 151.747 16.8683 151.418 17.451C151.088 18.0337 150.924 18.7177 150.924 19.503C150.924 20.2883 151.088 20.9723 151.418 21.555C151.747 22.1377 152.197 22.5937 152.767 22.923C153.337 23.2397 153.976 23.398 154.686 23.398C155.281 23.398 155.832 23.2777 156.339 23.037C156.845 22.7963 157.27 22.429 157.612 21.935L158.619 22.619C158.226 23.265 157.688 23.759 157.004 24.101C156.32 24.4303 155.553 24.595 154.705 24.595ZM161.12 24.5V14.525H162.469V24.5H161.12ZM161.804 12.321C161.526 12.321 161.291 12.226 161.101 12.036C160.911 11.846 160.816 11.618 160.816 11.352C160.816 11.086 160.911 10.8643 161.101 10.687C161.291 10.497 161.526 10.402 161.804 10.402C162.083 10.402 162.317 10.4907 162.507 10.668C162.697 10.8453 162.792 11.067 162.792 11.333C162.792 11.6117 162.697 11.846 162.507 12.036C162.33 12.226 162.096 12.321 161.804 12.321ZM172.474 24.5V22.296L172.417 21.935V18.249C172.417 17.4003 172.176 16.748 171.695 16.292C171.226 15.836 170.523 15.608 169.586 15.608C168.94 15.608 168.325 15.7157 167.743 15.931C167.16 16.1463 166.666 16.4313 166.261 16.786L165.653 15.779C166.159 15.3483 166.767 15.019 167.477 14.791C168.186 14.5503 168.933 14.43 169.719 14.43C171.011 14.43 172.005 14.753 172.702 15.399C173.411 16.0323 173.766 17.0013 173.766 18.306V24.5H172.474ZM169.035 24.595C168.287 24.595 167.635 24.4747 167.078 24.234C166.533 23.9807 166.115 23.6387 165.824 23.208C165.532 22.7647 165.387 22.258 165.387 21.688C165.387 21.1687 165.507 20.7 165.748 20.282C166.001 19.8513 166.406 19.5093 166.964 19.256C167.534 18.99 168.294 18.857 169.244 18.857H172.683V19.864H169.282C168.319 19.864 167.648 20.035 167.268 20.377C166.9 20.719 166.717 21.1433 166.717 21.65C166.717 22.22 166.938 22.676 167.382 23.018C167.825 23.36 168.446 23.531 169.244 23.531C170.004 23.531 170.656 23.36 171.201 23.018C171.758 22.6633 172.163 22.1567 172.417 21.498L172.721 22.429C172.467 23.0877 172.024 23.6133 171.391 24.006C170.77 24.3987 169.985 24.595 169.035 24.595ZM177.43 24.5V10.402H178.779V24.5H177.43ZM182.532 24.5V14.525H183.881V24.5H182.532ZM183.216 12.321C182.938 12.321 182.703 12.226 182.513 12.036C182.323 11.846 182.228 11.618 182.228 11.352C182.228 11.086 182.323 10.8643 182.513 10.687C182.703 10.497 182.938 10.402 183.216 10.402C183.495 10.402 183.729 10.4907 183.919 10.668C184.109 10.8453 184.204 11.067 184.204 11.333C184.204 11.6117 184.109 11.846 183.919 12.036C183.742 12.226 183.508 12.321 183.216 12.321ZM190.314 24.595C189.491 24.595 188.712 24.481 187.977 24.253C187.242 24.0123 186.666 23.7147 186.248 23.36L186.856 22.296C187.261 22.6 187.781 22.866 188.414 23.094C189.047 23.3093 189.712 23.417 190.409 23.417C191.359 23.417 192.043 23.2713 192.461 22.98C192.879 22.676 193.088 22.277 193.088 21.783C193.088 21.4157 192.968 21.1307 192.727 20.928C192.499 20.7127 192.195 20.5543 191.815 20.453C191.435 20.339 191.011 20.244 190.542 20.168C190.073 20.092 189.605 20.0033 189.136 19.902C188.68 19.8007 188.262 19.655 187.882 19.465C187.502 19.2623 187.192 18.99 186.951 18.648C186.723 18.306 186.609 17.85 186.609 17.28C186.609 16.7353 186.761 16.2477 187.065 15.817C187.369 15.3863 187.812 15.0507 188.395 14.81C188.99 14.5567 189.712 14.43 190.561 14.43C191.207 14.43 191.853 14.5187 192.499 14.696C193.145 14.8607 193.677 15.0823 194.095 15.361L193.506 16.444C193.063 16.14 192.588 15.9247 192.081 15.798C191.574 15.6587 191.068 15.589 190.561 15.589C189.662 15.589 188.997 15.7473 188.566 16.064C188.148 16.368 187.939 16.7607 187.939 17.242C187.939 17.622 188.053 17.9197 188.281 18.135C188.522 18.3503 188.832 18.5213 189.212 18.648C189.605 18.762 190.029 18.857 190.485 18.933C190.954 19.009 191.416 19.104 191.872 19.218C192.341 19.3193 192.765 19.465 193.145 19.655C193.538 19.8323 193.848 20.092 194.076 20.434C194.317 20.7633 194.437 21.2003 194.437 21.745C194.437 22.3277 194.272 22.8343 193.943 23.265C193.626 23.683 193.158 24.0123 192.537 24.253C191.929 24.481 191.188 24.595 190.314 24.595ZM200.066 24.595C199.129 24.595 198.407 24.3417 197.9 23.835C197.394 23.3283 197.14 22.6127 197.14 21.688V12.321H198.489V21.612C198.489 22.1947 198.635 22.6443 198.926 22.961C199.23 23.2777 199.661 23.436 200.218 23.436C200.814 23.436 201.308 23.265 201.7 22.923L202.175 23.892C201.909 24.1327 201.586 24.31 201.206 24.424C200.839 24.538 200.459 24.595 200.066 24.595ZM195.354 15.646V14.525H201.529V15.646H195.354Z" fill="white"/>
<circle cx="6.5" cy="18" r="6.5" transform="rotate(-90 6.5 18)" fill="#F8FBFF"/>
<circle cx="29.5" cy="18" r="6.5" transform="rotate(-90 29.5 18)" fill="#F8FBFF"/>
<circle cx="17.9955" cy="6.5" r="6.5" fill="#F8FBFF"/>
<circle cx="18.0045" cy="29.5" r="6.5" fill="#F8FBFF"/>
</svg>
